<?xml version="1.0" encoding="UTF-8"?>
<svg xmlns="http://www.w3.org/2000/svg" version="1.1" viewBox="0 0 127.3 94.1">
  <defs>
    <style>
      .cls-1 {
        fill: #f04a58;
      }

      .cls-2 {
        fill: #fdfdfd;
      }
    </style>
  </defs>
  <!-- Generator: Adobe Illustrator 28.7.7, SVG Export Plug-In . SVG Version: 1.2.0 Build 194)  -->
  <g>
    <g id="Capa_1">
      <g>
        <g>
          <g>
            <g>
              <path class="cls-1" d="M25.2,82.7h-3.7c0-.4-.2-.8-.3-1.2-.6-2.5-1.1-5-1.7-7.5-.4-1.7-.7-3.4-1.1-5.1,0,0,0-.2,0-.3,0,0,0,0-.2-.1.2,4.8.4,9.5.5,14.3h-6.3c0-4.1.1-8.1.1-12.2,0-4,0-8.1-.2-12.1h7.9c.1.7.3,1.4.4,2.1.1.7.3,1.4.4,2.2.1.7.3,1.4.4,2.1.1.7.3,1.4.4,2.1.1.7.3,1.4.4,2.1.1.7.3,1.4.4,2.2.1.7.3,1.4.4,2.1.1,0,.2,0,.2-.1.1-.8.3-1.5.4-2.3.3-1.7.6-3.3,1-5,.3-1.7.6-3.3.9-5,.2-.8.3-1.6.4-2.4,0,0,0,0,0-.1h7.8s0,0,0,0c0,0,0,0,0,0,0,0,0,0,0,.1-.2,8-.2,16.1,0,24.1h-6.1c.1-4.7.3-9.5.4-14.2-.1,0-.2,0-.2,0,0,.3-.1.6-.2,1-.6,2.8-1.2,5.6-1.8,8.4-.3,1.5-.6,3-1,4.5,0,0,0,.1,0,.2Z"/>
              <path class="cls-1" d="M57.4,82.7h-5.6c.1-5.8.1-11.6,0-17.3h5.5c0,.9,0,1.8-.2,2.7.1,0,.2-.1.2-.2.4-.6.9-1.2,1.5-1.7,1.2-1.1,2.6-1.5,4.2-1.3.6,0,1.2.2,1.7.6.5.4.8.8,1.1,1.4.3.7.5,1.5.6,2.3,0,.8.1,1.6.1,2.4,0,2.7,0,5.5,0,8.2,0,.9,0,1.8,0,2.6,0,0,0,.2,0,.3h-5.6c0,0,0-.2,0-.2,0-2.7,0-5.4,0-8,0-.6,0-1.2,0-1.8,0-.3-.1-.7-.2-1-.2-.8-.8-1.2-1.7-1-.7.1-1.2.5-1.6,1,0,0,0,.2,0,.3,0,.9,0,1.7,0,2.6,0,1.8,0,3.6,0,5.4,0,.8,0,1.7,0,2.5,0,0,0,.2,0,.3Z"/>
              <path class="cls-1" d="M44.6,72.6c0-.7,0-1.3-.3-1.9-.2-.5-.6-.8-1.1-1-.6-.3-1.3-.3-1.9-.4-1.4,0-2.8.1-4.1.4,0,0-.2,0-.3,0-.1-1.5-.2-2.9-.3-4.4.3,0,.6-.2,1-.2,1.9-.3,3.8-.5,5.7-.4,1,0,2.1.1,3.1.5,1.5.5,2.4,1.4,3,2.9.3.7.4,1.5.5,2.2.1,1.1.2,2.2.2,3.4,0,1.8,0,3.6,0,5.5,0,1.1,0,2.2.2,3.3,0,0,0,.1,0,.2-.2,0-4.7,0-5.3,0,0-.7,0-1.4,0-2.2-.1,0-.2.1-.2.2-.5.7-1.1,1.3-1.8,1.8-.8.5-1.7.8-2.6.8-.7,0-1.3,0-1.9-.3-1-.3-1.6-1-2.1-1.9-.3-.7-.5-1.3-.5-2.1,0-.8,0-1.6,0-2.4.1-.8.4-1.6.9-2.3.5-.7,1.2-1.2,2-1.5.8-.3,1.6-.4,2.4-.5.9,0,1.8,0,2.8,0,.3,0,.5,0,.8,0ZM44.6,75.1c0,0-.1,0-.2,0-.5,0-.9,0-1.4,0-.9,0-1.5.6-1.7,1.4-.2.6-.2,1.2,0,1.7,0,.2,0,.4.2.6.2.4.5.6.9.7.2,0,.4,0,.6,0,.7-.1,1.1-.5,1.5-1,.1-.1.2-.3.1-.4,0-.9,0-1.8,0-2.6,0,0,0-.2,0-.2Z"/>
              <path class="cls-1" d="M95.2,80.5c0,.7,0,1.4,0,2.2h5.3c0,0,0-.2,0-.2,0-1.1-.1-2.2-.1-3.3,0-1.8,0-3.6,0-5.4,0-1.1,0-2.3-.2-3.4,0-.8-.2-1.5-.5-2.2-.5-1.4-1.5-2.4-3-2.9-1-.3-2-.4-3-.5-1.9,0-3.8,0-5.8.4-.3,0-.6.1-1,.2.1,1.5.2,2.9.3,4.4,1.1-.3,2.2-.4,3.3-.5.8,0,1.6,0,2.4.1.5.1.9.3,1.3.7.5.5.7,1.1.8,1.8,0,.2,0,.4,0,.7-.3,0-.5,0-.7,0-.9,0-1.8-.1-2.8,0-.8,0-1.7.2-2.4.5-.8.3-1.5.8-2,1.5-.5.7-.8,1.5-.9,2.3-.1.8-.1,1.6,0,2.4,0,.7.2,1.4.5,2,.4.9,1.1,1.6,2.1,1.9.6.2,1.3.3,1.9.3,1,0,1.8-.3,2.6-.8.7-.5,1.3-1.1,1.8-1.8,0,0,0-.2.2-.2ZM94.8,78.5c-.4.5-.9.9-1.6,1.1-.2,0-.4,0-.6,0-.4,0-.8-.3-.9-.7,0-.2-.1-.4-.2-.6,0-.6,0-1.2,0-1.7.2-.7.7-1.2,1.5-1.4.6-.1,1.2,0,1.8,0,0,.1,0,.2,0,.3,0,.9,0,1.8,0,2.6,0,.2,0,.3-.1.4Z"/>
              <path class="cls-1" d="M102.9,74.1c.5.5,1,.9,1.7,1.2.7.3,1.4.6,2.1.9.3.1.6.3.9.5.4.3.6.7.7,1.2,0,.9-.2,1.7-1.2,1.9-.8.2-1.5,0-2.2-.2-.8-.3-1.4-.7-2.1-1.2,0,0-.2-.1-.3-.2,0,1.5-.2,3-.2,4.5h11.1c.1-.4.2-.7.3-1.1.2-1.1.2-2.3,0-3.4-.2-1.5-.9-2.7-2-3.5-.6-.5-1.4-.8-2.1-1.1-.4-.2-.8-.3-1.3-.5-.2,0-.4-.2-.5-.3-.2-.1-.3-.3-.3-.5,0-.5.1-.9.5-1.2.2-.2.5-.3.8-.3.6,0,1.2,0,1.8.1.8.2,1.6.4,2.3.7,0,0,.2,0,.3.1,0-2.1.2-4.1.3-6.1-.1,0-.2,0-.3,0-.9-.2-1.7-.3-2.6-.4-1.3-.1-2.6-.2-4-.1-.8,0-1.7.3-2.4.7-1,.6-1.7,1.4-2.1,2.7-.3,1.2-.4,2.4-.2,3.6.1.9.5,1.6,1,2.3Z"/>
              <path class="cls-1" d="M77.5,69.6h-1.4c0-1.4-.2-2.8-.3-4.2h1.7c0-.9,0-1.7,0-2.6,0-.8,0-1.7,0-2.5h5.6c0,1.7,0,3.4,0,5.1h2.3c0,1.4,0,2.8,0,4.2-.3,0-.5,0-.8,0-.3,0-.5,0-.8,0h-.8c0,4.4,0,8.7.1,13.1h-5.7c0-1.1,0-2.2,0-3.3,0-1.1,0-2.2,0-3.3,0-1.1,0-2.2,0-3.3,0-1.1,0-2.2,0-3.3Z"/>
              <path class="cls-1" d="M74.3,82.7h-5.6c.1-5.8.1-11.6,0-17.3h5.6c0,2.9,0,5.8,0,8.7,0,2.9,0,5.8,0,8.7Z"/>
            </g>
            <circle class="cls-1" cx="71.5" cy="60.7" r="2.9"/>
          </g>
          <g>
            <path class="cls-1" d="M78.9,31.3c1.1,2,2.2,3.8,3.3,5.7,1.4,2.5,1.1,4.9-.2,7.3-.8,1.5-2,2.7-3.3,3.7-2.2,1.7-4.5,3.2-7.2,3.9-.1,0-.2,0-.4.1,0,.4-.2.8-.2,1.2-.3,1.9-1.4,3.3-3,4.2-2.5,1.4-5.3,1.8-8.1,1.4-1.7-.2-3.3-.6-4.9-1.2-2.5-1-4.6-2.4-6.1-4.7-.9-1.5-1.4-3-.8-4.7.2-.6.1-1.1-.2-1.6-1.2-2.3-1.9-4.8-2.3-7.4-.3-2.4-.5-4.7-.3-7.1.4-4.7,1.1-9.3,3.4-13.5,1.1-2.1,2.5-4,4.5-5.5,1.1-.8,2.4-1.4,3.8-1.2.5,0,.9-.1,1.3-.5,1.6-1.6,3.4-2.8,5.5-3.7,2.2-1,4.7,0,5.9,1.4,1.7,1.8,1.8,3.9,1.4,6.2,0,.4-.2.7-.2,1,0,0,0,0,0,.2,1.2.6,2.5,1.2,3.8,1.7,1.9.8,3.2,2.1,3.9,4,.5,1.3,1,2.7,1.3,4.1.4,1.7.4,3.4-.7,4.9ZM51.3,51c0,0-.1,0-.2-.1,0,0,0,.2,0,.2.5.6,1,1.4,1.6,1.9,3.3,2.5,7,3.4,11.1,2.6,1-.2,2-.6,2.8-1.3.6-.5,1-1.1,1-1.9-.7,0-1.3,0-2-.3-1.1-.3-2.3-.6-3.3-1-.5-.2-1.1-.5-1.2-1.4.4,0,.7,0,1,0,1,0,2,0,3,0,3.2,0,6.2-.9,8.9-2.6,1.9-1.1,3.5-2.5,4.8-4.3,1-1.4,1.3-2.9.5-4.4-.9-1.6-1.8-3.2-2.7-4.8-.3-.5-.8-.7-1.3-.7-1.2,0-2,.9-2.2,2.3-.2,2.8.9,5,3,6.8.3.2.5.5.8.7-.6.6-1.3.4-1.9.2-1.4-.4-2.5-1.3-3.3-2.5-.2-.3-.4-.6-.6-.8-.5.2-.8.5-.8,1,0,.3-.2.6-.3.9-.4.7-.8.7-1.1,0-.7-1.8-1.9-3.2-2.9-4.8-.7-1.1-1.1-2.4-1.2-3.7,0-.7-.1-1.4-.2-2.1,0-.4-.2-.6-.6-.7-.4,0-1-.1-1-.6,0-.3.5-.6.8-.9.8-.5,1.5-1.1,1.9-1.9-.9-1.7-1-2.4-.5-3.2,1.1.5,1.8,1.7,2.9,2.2.2-.9.2-1.8,1.2-2.3.1.4.2.7.3,1,.3.8.4,1.7.8,2.5.7,1.5,1.9,2.5,3.7,2.6,1.6,0,2.4-.8,2.2-2.4,0-.2,0-.4,0-.6-.4-1.3-.8-2.6-1.2-3.8-.4-1-1.1-1.7-2-2.1-1-.4-1.9-.9-2.9-1.3-.4-.2-.9-.4-1.4-.5-.4-.1-.7,0-1.1.3-.8.8-1.6,1.6-2.5,2.4-.8.8-1.4,1.6-1.8,2.6-.6,1.4-1.3,2.7-2,4.1,0,.2.2.5.3.8-.5.4-1,0-1.4,0-.5,0-.9.2-1.4.3,0,0,0,0-.2-.2.2-.5.5-.9.7-1.4.4-1.2.8-2.4,1.1-3.6.5-2,1.4-3.8,2.9-5.2.6-.5,1.1-1,1.6-1.6.8-.7,1.6-1.5,2-2.5.5-1.2.6-2.3,0-3.5-.6-1.2-1.7-1.8-2.9-1.3-1.7.7-3.1,1.7-4.4,3,.1.2.2.3.2.4,1,1.5,1.2,3.1.8,4.9-.3,1.2-.9,2.3-1.7,3.2-1.8,2-2.4,4.4-3,6.9.2.1.3.2.4.3.1.2.4.5.3.6,0,.2-.4.3-.6.4,0,0-.2,0-.3,0-.6-.1-1,.2-1.4.6-.8.7-1.7,1.1-2.8,1-.3,0-.6,0-.7-.5.3-.2.6-.3.9-.5,1.1-.7,1.8-1.6,1.9-2.9,0-.5.1-.9.2-1.4.2-1.7.6-3.4,1.6-4.9.4-.7.9-1.4,1.4-2.1.7-1.1,1-2.2.5-3.4-.4-1.1-1.5-1.5-2.6-1-.4.2-.8.5-1.1.8-1.5,1.2-2.5,2.7-3.4,4.4-1.5,2.9-2.2,6-2.6,9.2-.5,4.2-.4,8.3.6,12.4.4,1.6,1,3.2,1.8,4.6,1.5,2.6,3.8,4.1,6.8,4.6.4,0,.8.2,1.2.4-.5.6-1,.7-1.6.8-1.6.3-3.3.1-4.8-.6-.5-.2-.9-.5-1.4-.7ZM71.2,32.3c-.7-.9-1.4-1.8-2-2.6-.5-.7-1-.8-1.6,0-.1.1-.2.2-.2.2,0,1,.2,1.8.2,2.6,0,1.8.6,3.5,1.9,4.9.6,0,.7-.4.7-.9,0-1.5.2-2.8,1-4Z"/>
            <path class="cls-2" d="M51.3,51c.5.2.9.5,1.4.7,1.5.7,3.1.9,4.8.6.5,0,1.1-.2,1.6-.8-.5-.1-.9-.3-1.2-.4-3-.5-5.3-2-6.8-4.6-.8-1.4-1.4-3-1.8-4.6-1.1-4.1-1.2-8.3-.6-12.4.4-3.2,1.1-6.3,2.6-9.2.8-1.7,1.9-3.2,3.4-4.4.3-.3.7-.6,1.1-.8,1.1-.5,2.1,0,2.6,1,.5,1.2.2,2.4-.5,3.4-.5.7-1,1.4-1.4,2.1-.9,1.5-1.4,3.2-1.6,4.9,0,.5-.1.9-.2,1.4-.1,1.3-.8,2.2-1.9,2.9-.3.2-.6.3-.9.5,0,.5.4.5.7.5,1.1,0,2-.3,2.8-1,.4-.4.8-.7,1.4-.6,0,0,.2,0,.3,0,.2-.1.5-.2.6-.4,0-.2-.2-.4-.3-.6,0-.1-.3-.2-.4-.3.6-2.5,1.2-4.9,3-6.9.8-.9,1.5-2,1.7-3.2.4-1.7.2-3.4-.8-4.9,0-.1-.1-.2-.2-.4,1.3-1.3,2.7-2.3,4.4-3,1.2-.5,2.4,0,2.9,1.3.6,1.2.5,2.3,0,3.5-.5,1-1.3,1.7-2,2.5-.5.5-1.1,1.1-1.6,1.6-1.5,1.4-2.4,3.2-2.9,5.2-.3,1.2-.7,2.4-1.1,3.6-.2.5-.5,1-.7,1.4,0,.1.1.2.2.2.5,0,.9-.3,1.4-.3.4,0,.8.4,1.4,0-.1-.3-.2-.6-.3-.8.7-1.4,1.4-2.7,2-4.1.5-1,1-1.9,1.8-2.6.8-.8,1.7-1.5,2.5-2.4.3-.3.7-.4,1.1-.3.5.1.9.3,1.4.5,1,.4,1.9.8,2.9,1.3,1,.4,1.7,1.1,2,2.1.4,1.3.8,2.5,1.2,3.8,0,.2,0,.4,0,.6.1,1.6-.7,2.4-2.2,2.4-1.8-.1-3-1.1-3.7-2.6-.4-.8-.5-1.7-.8-2.5,0-.3-.2-.6-.3-1-1,.6-1,1.5-1.2,2.3-1.2-.5-1.8-1.7-2.9-2.2-.5.8-.4,1.5.5,3.2-.4.8-1.1,1.4-1.9,1.9-.3.2-.8.6-.8.9,0,.5.5.6,1,.6.4,0,.5.3.6.7,0,.7.1,1.4.2,2.1,0,1.3.5,2.6,1.2,3.7.9,1.6,2.2,3,2.9,4.8.3.7.8.6,1.1,0,.1-.3.3-.6.3-.9,0-.6.3-.8.8-1,.2.3.4.5.6.8.8,1.2,1.9,2,3.3,2.5.6.2,1.2.3,1.9-.2-.3-.3-.6-.5-.8-.7-2.1-1.8-3.2-4-3-6.8.1-1.4.9-2.3,2.2-2.3.6,0,1,.2,1.3.7.9,1.6,1.9,3.1,2.7,4.8.8,1.5.5,3-.5,4.4-1.3,1.8-2.9,3.2-4.8,4.3-2.7,1.6-5.7,2.6-8.9,2.6-1,0-2,0-3,0-.3,0-.6,0-1,0,.1.8.6,1.2,1.2,1.4,1.1.4,2.2.8,3.3,1,.6.2,1.3.2,2,.3,0,.8-.4,1.4-1,1.9-.8.7-1.8,1.1-2.8,1.3-4.1.7-7.8-.1-11.1-2.6-.7-.5-1.1-1.3-1.6-1.9,0,0,0,0,.1-.1Z"/>
          </g>
        </g>
        <g>
          <path class="cls-1" d="M115.1,79.6c0-1.7,1.3-3.1,3-3,1.7,0,3,1.3,3,3,0,1.7-1.3,3.1-3,3.1-1.7,0-3.1-1.3-3.1-3ZM118.2,82.1c.1,0,.3,0,.4,0,.8-.1,1.4-.5,1.8-1.3.4-.7.4-1.5.1-2.2-.2-.6-.6-1-1.2-1.3-.5-.2-1.1-.3-1.7-.2-.8.2-1.4.7-1.7,1.5-.2.5-.2,1-.1,1.5.1.6.4,1.1.8,1.4.5.4,1,.5,1.6.5Z"/>
          <path class="cls-1" d="M117.8,79.8v1.2h-.6v-3s0,0,0,0c.4,0,.8,0,1.2,0,.2,0,.5,0,.7.2.2.2.3.4.3.6,0,.4-.2.7-.5.8,0,0,0,0,0,0,.3.4.5.8.8,1.3,0,0,0,0,0,0-.2,0-.3,0-.5,0,0,0,0,0,0,0-.2-.4-.4-.7-.7-1.1,0,0,0,0,0,0,0,0-.2,0-.3,0ZM117.8,79.4s0,0,0,0c.1,0,.3,0,.4,0,.3,0,.4-.2.4-.5,0-.2-.1-.3-.3-.4-.2,0-.4,0-.6,0v.9Z"/>
        </g>
      </g>
    </g>
  </g>
</svg>