<?xml version="1.0" encoding="UTF-8"?>
<svg id="Capa_2" xmlns="http://www.w3.org/2000/svg" viewBox="0 0 108.72 75.95">
  <defs>
    <style>
      .cls-1 {
        fill: #f04a58;
      }

      .cls-2 {
        fill: #fdfdfd;
      }
    </style>
  </defs>
  <g id="Capa_1-2" data-name="Capa_1">
    <g>
      <g>
        <g>
          <g>
            <path class="cls-1" d="M12.77,75.39h-3.74c-.09-.41-.19-.82-.28-1.24-.55-2.51-1.1-5.03-1.65-7.54-.37-1.7-.75-3.41-1.12-5.11-.02-.09-.03-.18-.06-.26-.01-.04-.07-.05-.16-.11.18,4.78.37,9.52.55,14.26H.04c.05-4.06.1-8.11.13-12.16.03-4.04-.06-8.08-.17-12.14h7.88c.14.71.28,1.42.42,2.12.14.72.28,1.44.42,2.16.14.71.28,1.42.42,2.13.14.71.28,1.42.42,2.13.14.71.27,1.42.41,2.13.14.72.28,1.44.42,2.15.14.7.26,1.41.42,2.1.15,0,.15-.07.17-.14.15-.77.29-1.54.44-2.32.32-1.67.64-3.34.95-5.01.31-1.65.63-3.3.94-4.95.15-.79.3-1.58.45-2.37,0-.04.03-.08.05-.13h7.78s.02.02.03.02c0,0,0,.02.01.02,0,.04,0,.07,0,.11-.23,8.04-.23,16.08.01,24.14h-6.12c.14-4.74.28-9.46.41-14.19-.12-.05-.17-.03-.19.08-.07.32-.14.64-.2.95-.59,2.81-1.18,5.62-1.77,8.44-.32,1.51-.63,3.02-.95,4.54-.01.06-.03.12-.05.19Z"/>
            <path class="cls-1" d="M44.98,75.39h-5.58c.1-5.77.14-11.55.03-17.34h5.49c0,.9-.1,1.8-.17,2.72.14-.03.16-.14.21-.21.42-.63.89-1.21,1.45-1.71,1.2-1.06,2.59-1.5,4.19-1.31.61.07,1.18.24,1.69.6.5.35.85.83,1.11,1.38.34.73.5,1.51.59,2.3.1.81.11,1.62.11,2.44,0,2.74,0,5.48,0,8.22,0,.88.03,1.75.05,2.63,0,.09,0,.18,0,.28h-5.59c0-.08-.01-.15-.01-.23.03-2.68.06-5.36.08-8.03,0-.61-.03-1.23-.08-1.84-.03-.34-.11-.68-.21-1-.24-.77-.75-1.16-1.73-1.01-.68.1-1.19.5-1.62,1.01-.06.07-.07.18-.07.27,0,.87-.01,1.74-.01,2.61,0,1.81.01,3.62.03,5.43,0,.84.03,1.68.04,2.52,0,.09,0,.18,0,.28Z"/>
            <path class="cls-1" d="M32.16,65.27c.03-.67-.04-1.29-.33-1.86-.24-.48-.62-.82-1.11-1.04-.61-.28-1.27-.35-1.93-.37-1.39-.04-2.76.13-4.11.44-.1.02-.19.04-.31.07-.11-1.46-.21-2.91-.31-4.38.33-.07.65-.16.96-.21,1.88-.35,3.78-.5,5.7-.43,1.05.04,2.09.14,3.1.46,1.46.47,2.44,1.43,2.96,2.87.26.72.4,1.46.49,2.22.14,1.12.15,2.24.16,3.36.01,1.82.03,3.64.07,5.46.02,1.09.1,2.19.15,3.28,0,.07,0,.14,0,.22-.19.05-4.73.08-5.27.02-.02-.72.08-1.45.07-2.19-.12.03-.15.14-.2.21-.49.7-1.08,1.31-1.82,1.77-.79.5-1.66.75-2.59.77-.65.01-1.3-.04-1.92-.26-.96-.33-1.64-.97-2.07-1.87-.31-.65-.46-1.34-.53-2.06-.08-.79-.06-1.57.06-2.35.13-.81.38-1.58.87-2.26.5-.71,1.18-1.19,1.98-1.51.77-.31,1.59-.43,2.41-.48.92-.05,1.84,0,2.77.07.25.02.5.03.78.05ZM32.16,67.81c-.06-.02-.11-.04-.16-.04-.46-.03-.92-.07-1.38-.02-.85.1-1.47.6-1.7,1.41-.16.57-.17,1.16-.09,1.75.03.2.09.41.17.6.17.41.5.64.94.69.19.02.38.01.57-.02.67-.11,1.14-.51,1.53-1.03.1-.14.15-.27.15-.45,0-.88,0-1.76,0-2.63,0-.08,0-.16-.01-.25Z"/>
            <path class="cls-1" d="M82.74,73.19c-.03.73-.06,1.44-.09,2.17h5.28c0-.09,0-.17,0-.25-.05-1.08-.13-2.17-.15-3.25-.04-1.8-.05-3.6-.07-5.4,0-1.14-.02-2.28-.16-3.41-.09-.76-.24-1.5-.49-2.22-.52-1.44-1.5-2.4-2.96-2.87-.99-.32-2.02-.42-3.05-.46-1.93-.07-3.85.08-5.75.43-.32.06-.63.14-.96.21.11,1.48.21,2.92.32,4.38,1.12-.28,2.22-.45,3.35-.5.8-.04,1.59-.04,2.38.14.48.11.93.3,1.29.65.52.49.71,1.12.77,1.8.02.21.05.43-.01.65-.26-.01-.5-.02-.74-.04-.92-.06-1.84-.12-2.77-.07-.83.04-1.65.17-2.44.48-.79.31-1.46.79-1.96,1.49-.49.68-.75,1.46-.88,2.28-.12.78-.14,1.57-.06,2.35.07.71.22,1.39.52,2.04.44.92,1.12,1.56,2.09,1.89.62.21,1.25.27,1.9.26.95-.02,1.83-.28,2.64-.79.72-.46,1.3-1.06,1.79-1.75.05-.07.08-.17.21-.21ZM82.33,71.12c-.39.53-.87.94-1.55,1.05-.19.03-.38.04-.57.02-.44-.05-.76-.28-.93-.69-.08-.19-.14-.39-.17-.6-.08-.59-.08-1.18.09-1.75.22-.74.7-1.2,1.47-1.36.59-.13,1.17-.05,1.78,0,0,.12.01.2.01.28,0,.88,0,1.76,0,2.63,0,.16-.04.3-.13.43Z"/>
            <path class="cls-1" d="M90.43,66.75c.48.54,1.05.92,1.67,1.19.7.31,1.41.57,2.11.88.32.14.62.33.91.54.37.28.6.69.65,1.2.09.92-.2,1.74-1.16,1.95-.76.16-1.51.07-2.25-.19-.76-.27-1.44-.71-2.09-1.22-.08-.07-.17-.13-.28-.21-.08,1.51-.17,2.99-.25,4.46h11.09c.14-.36.25-.74.33-1.14.23-1.14.24-2.29.05-3.43-.24-1.48-.88-2.66-1.99-3.49-.65-.49-1.37-.79-2.1-1.07-.42-.16-.84-.32-1.25-.5-.19-.08-.37-.21-.55-.34-.16-.12-.28-.3-.3-.54-.04-.51.11-.94.48-1.25.24-.2.52-.29.81-.32.6-.07,1.19-.01,1.78.11.79.16,1.56.45,2.32.75.09.04.18.07.3.11.09-2.05.19-4.06.28-6.11-.13-.03-.23-.06-.34-.09-.85-.19-1.71-.31-2.58-.39-1.32-.13-2.63-.24-3.95-.11-.84.08-1.66.27-2.43.69-1.02.55-1.74,1.43-2.1,2.67-.34,1.18-.38,2.38-.19,3.6.14.87.47,1.63,1.02,2.26Z"/>
            <path class="cls-1" d="M65,62.28h-1.4c-.09-1.4-.17-2.79-.26-4.19h1.66c-.02-.87-.04-1.72-.04-2.56,0-.84,0-1.68,0-2.53h5.56c-.03,1.69-.06,3.37-.1,5.08h2.35c.03,1.4.05,2.78.08,4.19-.27.03-.53.01-.79.01-.27,0-.54,0-.81,0h-.82c.02,4.38-.03,8.74.13,13.11h-5.71c.02-1.09.05-2.18.07-3.27.02-1.09.04-2.17.05-3.26.01-1.09.03-2.19.03-3.28,0-1.09,0-2.17,0-3.3Z"/>
            <path class="cls-1" d="M61.86,75.39h-5.6c.13-5.79.14-11.56,0-17.35h5.6c-.02,2.89-.05,5.78-.05,8.67,0,2.88.03,5.77.05,8.67Z"/>
          </g>
          <circle class="cls-1" cx="59.06" cy="53.32" r="2.94"/>
        </g>
        <g>
          <path class="cls-1" d="M66.41,23.92c1.12,1.96,2.21,3.82,3.26,5.69,1.4,2.48,1.14,4.9-.23,7.32-.84,1.48-1.97,2.71-3.26,3.73-2.17,1.72-4.53,3.17-7.23,3.94-.12.04-.25.08-.41.14-.07.4-.17.8-.22,1.22-.26,1.94-1.42,3.27-3.03,4.2-2.52,1.45-5.26,1.79-8.13,1.44-1.69-.21-3.33-.58-4.9-1.23-2.46-1.01-4.63-2.4-6.08-4.71-.92-1.47-1.36-3.05-.8-4.75.2-.6.1-1.06-.17-1.58-1.21-2.33-1.95-4.81-2.29-7.43-.31-2.37-.5-4.75-.31-7.12.38-4.66,1.12-9.26,3.38-13.45,1.14-2.11,2.51-4.04,4.47-5.5,1.13-.85,2.37-1.37,3.81-1.23.54.05.91-.13,1.28-.52,1.55-1.62,3.42-2.79,5.47-3.71,2.2-.99,4.66.08,5.88,1.41,1.65,1.82,1.84,3.94,1.43,6.22-.06.35-.16.69-.25,1.04,0,.03,0,.06.02.17,1.23.55,2.49,1.16,3.78,1.68,1.9.77,3.2,2.12,3.94,3.99.52,1.33,1.02,2.69,1.31,4.08.36,1.71.43,3.45-.73,4.95ZM38.87,43.67c-.06-.04-.12-.08-.18-.12.02.08.04.16.05.24.54.64.99,1.41,1.65,1.91,3.29,2.49,7.01,3.36,11.08,2.63,1.03-.18,2.01-.55,2.83-1.26.59-.51.98-1.1.99-1.95-.67-.08-1.33-.09-1.96-.25-1.13-.29-2.26-.62-3.34-1.05-.51-.2-1.05-.54-1.16-1.36.36,0,.67,0,.98,0,1.01.02,2.03.03,3.04.05,3.24.07,6.17-.91,8.91-2.56,1.86-1.12,3.52-2.49,4.79-4.27.98-1.38,1.29-2.88.48-4.42-.85-1.61-1.81-3.17-2.73-4.75-.29-.5-.76-.68-1.33-.65-1.23.05-2.04.91-2.16,2.34-.22,2.8.88,5.02,3.01,6.78.27.22.52.45.83.72-.65.59-1.3.43-1.89.25-1.38-.43-2.49-1.26-3.32-2.46-.2-.29-.42-.56-.62-.83-.5.23-.81.49-.82,1.04,0,.31-.15.64-.3.92-.35.66-.85.7-1.12.03-.7-1.75-1.91-3.18-2.86-4.78-.68-1.14-1.1-2.36-1.17-3.69-.04-.72-.11-1.43-.17-2.15-.03-.36-.17-.63-.57-.68-.42-.06-.99-.13-.96-.62.02-.3.48-.64.81-.86.77-.51,1.47-1.06,1.89-1.89-.93-1.72-1.04-2.39-.5-3.24,1.12.51,1.75,1.7,2.93,2.25.21-.86.21-1.79,1.22-2.35.11.39.19.69.27.98.26.84.42,1.72.8,2.5.73,1.54,1.94,2.53,3.72,2.63,1.57.09,2.38-.78,2.24-2.35-.02-.2-.02-.4-.08-.58-.4-1.27-.77-2.56-1.22-3.82-.35-1-1.07-1.7-2.05-2.12-.96-.41-1.9-.85-2.86-1.26-.45-.19-.91-.36-1.38-.49-.39-.11-.72-.05-1.05.29-.79.82-1.65,1.58-2.48,2.37-.79.75-1.37,1.64-1.83,2.63-.63,1.35-1.34,2.68-2.05,4.09.07.19.19.5.3.79-.54.43-.96.07-1.38.07-.46,0-.92.18-1.39.27-.03,0-.08-.09-.16-.2.23-.45.54-.92.71-1.43.41-1.2.81-2.41,1.12-3.64.51-2.01,1.39-3.79,2.94-5.21.55-.51,1.08-1.05,1.62-1.57.78-.75,1.56-1.49,2.03-2.49.55-1.16.62-2.33.07-3.5-.56-1.2-1.72-1.76-2.92-1.28-1.67.67-3.14,1.69-4.41,2.97.11.17.17.29.24.4.99,1.5,1.25,3.13.84,4.87-.29,1.24-.91,2.31-1.75,3.24-1.78,1.98-2.37,4.44-2.98,6.91.17.12.34.19.43.31.14.19.37.46.32.61-.06.19-.37.31-.58.44-.08.05-.2.05-.29.03-.59-.13-.96.2-1.35.56-.78.71-1.7,1.08-2.78.98-.28-.03-.6-.03-.69-.51.29-.16.6-.33.9-.51,1.09-.67,1.79-1.6,1.93-2.9.05-.45.11-.91.17-1.36.21-1.73.65-3.4,1.56-4.9.44-.72.94-1.41,1.41-2.12.71-1.06,1.01-2.2.53-3.43-.43-1.11-1.47-1.54-2.55-1.05-.41.19-.79.47-1.13.75-1.46,1.21-2.51,2.73-3.36,4.41-1.45,2.89-2.19,5.98-2.6,9.17-.54,4.19-.44,8.34.63,12.44.42,1.62,1.01,3.17,1.85,4.62,1.52,2.64,3.83,4.11,6.82,4.6.39.06.77.22,1.25.36-.48.6-1.04.71-1.57.79-1.65.26-3.26.1-4.78-.64-.47-.23-.92-.48-1.38-.72ZM58.75,24.95c-.74-.95-1.4-1.78-2.03-2.63-.54-.72-1.01-.75-1.64-.09-.11.11-.2.24-.18.22.09.97.2,1.77.23,2.57.08,1.84.59,3.5,1.89,4.86.62-.04.72-.42.7-.94-.06-1.46.18-2.85,1.03-3.99Z"/>
          <path class="cls-2" d="M38.87,43.67c.46.24.91.49,1.38.72,1.52.74,3.13.89,4.78.64.53-.08,1.09-.19,1.57-.79-.47-.14-.85-.29-1.25-.36-2.98-.49-5.3-1.96-6.82-4.6-.83-1.45-1.42-3-1.85-4.62-1.07-4.1-1.18-8.25-.63-12.44.41-3.19,1.15-6.28,2.6-9.17.84-1.68,1.9-3.2,3.36-4.41.35-.29.73-.57,1.13-.75,1.08-.49,2.12-.07,2.55,1.05.48,1.23.18,2.37-.53,3.43-.47.71-.97,1.39-1.41,2.12-.92,1.5-1.35,3.17-1.56,4.9-.06.45-.12.91-.17,1.36-.15,1.3-.84,2.23-1.93,2.9-.3.18-.61.35-.9.51.09.48.41.48.69.51,1.07.1,2-.28,2.78-.98.4-.36.77-.69,1.35-.56.09.02.21.01.29-.03.21-.13.52-.25.58-.44.05-.15-.18-.42-.32-.61-.09-.12-.26-.19-.43-.31.61-2.47,1.2-4.93,2.98-6.91.84-.93,1.46-2.01,1.75-3.24.41-1.74.15-3.37-.84-4.87-.07-.11-.13-.22-.24-.4,1.27-1.29,2.74-2.3,4.41-2.97,1.2-.48,2.35.08,2.92,1.28.55,1.17.48,2.34-.07,3.5-.47,1-1.25,1.74-2.03,2.49-.54.52-1.07,1.06-1.62,1.57-1.55,1.42-2.42,3.2-2.94,5.21-.31,1.23-.71,2.44-1.12,3.64-.17.51-.48.97-.71,1.43.08.11.13.21.16.2.46-.09.93-.27,1.39-.27.43,0,.85.37,1.38-.07-.11-.28-.23-.6-.3-.79.71-1.41,1.41-2.74,2.05-4.09.46-.99,1.04-1.88,1.83-2.63.83-.79,1.69-1.55,2.48-2.37.33-.34.67-.4,1.05-.29.47.13.93.3,1.38.49.96.41,1.9.85,2.86,1.26.98.42,1.7,1.12,2.05,2.12.44,1.26.82,2.54,1.22,3.82.06.18.06.39.08.58.15,1.57-.66,2.44-2.24,2.35-1.78-.1-2.98-1.09-3.72-2.63-.37-.78-.54-1.67-.8-2.5-.09-.29-.17-.59-.27-.98-1.01.56-1.01,1.49-1.22,2.35-1.18-.54-1.81-1.74-2.93-2.25-.55.85-.43,1.52.5,3.24-.42.83-1.12,1.38-1.89,1.89-.33.22-.8.55-.81.86-.03.48.53.56.96.62.41.05.54.32.57.68.06.72.14,1.43.17,2.15.07,1.34.49,2.56,1.17,3.69.95,1.6,2.16,3.03,2.86,4.78.27.67.77.63,1.12-.03.15-.28.29-.61.3-.92.02-.55.32-.82.82-1.04.2.27.42.54.62.83.83,1.19,1.94,2.03,3.32,2.46.6.18,1.25.34,1.89-.25-.31-.27-.56-.5-.83-.72-2.13-1.76-3.23-3.98-3.01-6.78.11-1.43.93-2.29,2.16-2.34.57-.02,1.03.15,1.33.65.92,1.58,1.88,3.14,2.73,4.75.81,1.54.5,3.04-.48,4.42-1.27,1.79-2.93,3.15-4.79,4.27-2.74,1.65-5.67,2.63-8.91,2.56-1.01-.02-2.03-.04-3.04-.05-.31,0-.62,0-.98,0,.1.82.65,1.16,1.16,1.36,1.09.43,2.21.75,3.34,1.05.62.16,1.28.17,1.96.25,0,.84-.4,1.44-.99,1.95-.82.7-1.8,1.07-2.83,1.26-4.07.73-7.79-.14-11.08-2.63-.66-.5-1.1-1.26-1.65-1.91.05-.04.09-.08.13-.12Z"/>
        </g>
      </g>
      <g>
        <path class="cls-1" d="M102.69,72.22c0-1.69,1.34-3.05,3.05-3.04,1.68.01,2.96,1.32,2.99,2.95.04,1.74-1.3,3.06-2.97,3.09-1.71.03-3.07-1.29-3.07-3ZM105.71,74.73c.14-.01.28-.02.42-.04.79-.13,1.4-.54,1.76-1.27.36-.72.38-1.47.11-2.22-.22-.61-.63-1.05-1.23-1.31-.54-.24-1.1-.28-1.66-.15-.83.19-1.4.68-1.71,1.48-.19.49-.22,1.01-.13,1.53.11.58.38,1.07.85,1.45.46.37,1,.53,1.59.55Z"/>
        <path class="cls-1" d="M105.32,72.5v1.16h-.65v-2.98s.02,0,.03,0c.39,0,.79,0,1.18,0,.25,0,.49.07.69.23.2.16.28.38.29.64.01.41-.16.67-.54.82-.02,0-.04.02-.07.03.26.42.52.84.78,1.26-.04,0-.07,0-.1,0-.17,0-.35,0-.52,0-.03,0-.07-.02-.08-.04-.22-.35-.44-.71-.66-1.06-.02-.04-.05-.05-.1-.05-.08,0-.16,0-.25,0ZM105.33,72.04s.03,0,.04,0c.14,0,.28,0,.42,0,.3-.02.44-.18.43-.48,0-.2-.11-.35-.31-.37-.19-.02-.38-.02-.58-.03v.88Z"/>
      </g>
    </g>
  </g>
</svg>