<?xml version="1.0" encoding="UTF-8"?>
<svg id="Capa_2" xmlns="http://www.w3.org/2000/svg" viewBox="0 0 33.01 44.87">
  <defs>
    <style>
      .cls-1 {
        fill: #f04a58;
      }

      .cls-2 {
        fill: #fdfdfd;
      }
    </style>
  </defs>
  <g id="Capa_1-2" data-name="Capa_1">
    <g>
      <path class="cls-1" d="M29.38,20.75c.98,1.7,1.91,3.31,2.83,4.94,1.21,2.15.98,4.25-.2,6.35-.73,1.28-1.71,2.35-2.83,3.24-1.88,1.49-3.93,2.75-6.27,3.42-.11.03-.21.07-.35.12-.06.34-.15.7-.19,1.05-.22,1.69-1.23,2.84-2.63,3.64-2.19,1.25-4.56,1.56-7.05,1.25-1.47-.18-2.89-.5-4.25-1.07-2.13-.88-4.02-2.08-5.27-4.08-.8-1.27-1.18-2.64-.69-4.12.17-.52.09-.92-.15-1.37-1.05-2.03-1.69-4.17-1.98-6.44-.27-2.06-.43-4.12-.27-6.18.33-4.05.97-8.03,2.93-11.67.99-1.83,2.18-3.5,3.87-4.77.98-.74,2.06-1.19,3.31-1.07.47.05.79-.11,1.11-.45,1.35-1.41,2.97-2.42,4.75-3.21,1.91-.86,4.04.07,5.1,1.23,1.43,1.58,1.6,3.42,1.24,5.39-.05.3-.14.6-.21.9,0,.03,0,.06.02.15,1.07.48,2.16,1.01,3.28,1.46,1.65.67,2.78,1.84,3.42,3.46.46,1.15.88,2.33,1.14,3.54.32,1.48.37,2.99-.64,4.29ZM5.48,37.88c-.05-.04-.11-.07-.16-.11.02.07.03.14.05.21.47.56.86,1.22,1.43,1.65,2.86,2.16,6.08,2.92,9.61,2.28.89-.16,1.75-.48,2.46-1.09.51-.44.85-.96.86-1.69-.58-.07-1.16-.08-1.7-.22-.98-.25-1.96-.54-2.9-.91-.44-.17-.92-.47-1-1.18.31,0,.58,0,.85,0,.88.01,1.76.02,2.64.04,2.81.06,5.36-.79,7.73-2.22,1.62-.97,3.05-2.16,4.16-3.71.85-1.2,1.12-2.5.42-3.83-.74-1.4-1.57-2.75-2.37-4.12-.25-.44-.66-.59-1.15-.57-1.06.04-1.77.79-1.87,2.03-.19,2.43.76,4.35,2.61,5.88.23.19.45.39.72.62-.56.51-1.13.37-1.64.21-1.2-.37-2.16-1.1-2.88-2.13-.17-.25-.36-.49-.54-.72-.44.2-.7.43-.71.9,0,.27-.13.55-.26.8-.3.57-.73.61-.97.03-.61-1.52-1.66-2.76-2.48-4.15-.59-.99-.95-2.05-1.01-3.2-.03-.62-.1-1.24-.15-1.86-.03-.31-.14-.54-.49-.59-.37-.05-.85-.11-.83-.53.02-.26.42-.55.71-.74.67-.44,1.28-.92,1.64-1.64-.81-1.49-.91-2.07-.43-2.81.97.44,1.52,1.48,2.54,1.95.18-.74.18-1.55,1.06-2.03.09.34.16.6.24.85.22.73.37,1.49.69,2.17.64,1.34,1.68,2.2,3.23,2.28,1.36.08,2.07-.67,1.94-2.04-.02-.17-.02-.34-.07-.5-.34-1.11-.67-2.22-1.06-3.31-.31-.87-.92-1.47-1.78-1.84-.83-.36-1.65-.74-2.48-1.09-.39-.17-.79-.31-1.19-.43-.34-.09-.63-.04-.91.25-.69.71-1.43,1.37-2.15,2.05-.69.65-1.19,1.43-1.59,2.28-.55,1.17-1.16,2.32-1.78,3.55.06.17.17.44.26.68-.47.38-.83.06-1.2.06-.4,0-.8.15-1.2.23-.02,0-.07-.08-.14-.18.2-.39.46-.8.62-1.24.36-1.04.7-2.09.98-3.15.45-1.74,1.2-3.29,2.55-4.52.48-.44.94-.91,1.41-1.36.68-.65,1.35-1.29,1.76-2.16.48-1,.54-2.02.06-3.03-.49-1.04-1.49-1.53-2.53-1.11-1.45.58-2.72,1.46-3.83,2.58.09.15.15.25.21.35.86,1.3,1.08,2.71.73,4.22-.25,1.07-.79,2.01-1.52,2.81-1.54,1.71-2.05,3.85-2.58,5.99.15.1.29.16.37.27.12.16.32.4.28.53-.06.17-.32.27-.51.38-.07.04-.17.05-.25.03-.51-.11-.83.18-1.17.49-.68.61-1.48.94-2.41.85-.24-.02-.52-.02-.6-.44.25-.14.52-.29.78-.44.95-.58,1.55-1.39,1.68-2.52.04-.39.1-.79.14-1.18.19-1.5.56-2.95,1.36-4.25.38-.63.82-1.22,1.22-1.84.61-.92.87-1.91.46-2.97-.37-.97-1.27-1.34-2.21-.91-.35.16-.68.4-.98.65-1.27,1.05-2.18,2.37-2.91,3.83-1.26,2.51-1.9,5.19-2.26,7.96-.47,3.64-.38,7.23.55,10.79.37,1.4.88,2.75,1.6,4.01,1.32,2.29,3.33,3.57,5.91,3.99.34.06.67.19,1.08.31-.42.52-.9.61-1.36.69-1.43.22-2.83.09-4.14-.55-.4-.2-.8-.42-1.2-.62ZM22.73,21.65c-.64-.82-1.21-1.55-1.76-2.28-.47-.62-.88-.65-1.42-.08-.09.1-.17.21-.16.19.08.84.17,1.53.2,2.23.07,1.6.51,3.04,1.64,4.21.54-.04.63-.36.61-.82-.05-1.26.15-2.47.89-3.46Z"/>
      <path class="cls-2" d="M5.48,37.88c.4.21.79.43,1.2.62,1.32.64,2.71.77,4.14.55.46-.07.94-.16,1.36-.69-.41-.12-.74-.25-1.08-.31-2.59-.42-4.59-1.7-5.91-3.99-.72-1.26-1.23-2.6-1.6-4.01-.93-3.56-1.02-7.16-.55-10.79.36-2.77,1-5.45,2.26-7.96.73-1.46,1.65-2.78,2.91-3.83.3-.25.63-.49.98-.65.94-.43,1.84-.06,2.21.91.41,1.07.15,2.05-.46,2.97-.41.61-.84,1.21-1.22,1.84-.8,1.3-1.17,2.75-1.36,4.25-.05.39-.1.79-.14,1.18-.13,1.13-.73,1.94-1.68,2.52-.26.16-.53.3-.78.44.08.42.35.42.6.44.93.09,1.73-.24,2.41-.85.34-.31.66-.6,1.17-.49.08.02.18.01.25-.03.19-.11.45-.22.51-.38.04-.13-.15-.37-.28-.53-.08-.11-.22-.17-.37-.27.53-2.14,1.04-4.28,2.58-5.99.73-.81,1.26-1.74,1.52-2.81.35-1.51.13-2.92-.73-4.22-.06-.09-.12-.19-.21-.35,1.1-1.12,2.38-2,3.83-2.58,1.04-.42,2.04.07,2.53,1.11.48,1.02.41,2.03-.06,3.03-.41.87-1.08,1.51-1.76,2.16-.47.45-.93.92-1.41,1.36-1.34,1.23-2.1,2.78-2.55,4.52-.27,1.07-.62,2.11-.98,3.15-.15.44-.42.84-.62,1.24.07.09.11.18.14.18.4-.08.8-.23,1.2-.23.37,0,.74.32,1.2-.06-.09-.25-.2-.52-.26-.68.62-1.23,1.23-2.37,1.78-3.55.4-.86.9-1.63,1.59-2.28.72-.68,1.46-1.34,2.15-2.05.29-.3.58-.35.91-.25.41.11.81.26,1.19.43.83.35,1.65.74,2.48,1.09.85.37,1.47.97,1.78,1.84.38,1.09.71,2.2,1.06,3.31.05.16.06.34.07.5.13,1.36-.58,2.12-1.94,2.04-1.54-.09-2.59-.95-3.23-2.28-.32-.68-.47-1.44-.69-2.17-.08-.26-.14-.51-.24-.85-.88.48-.88,1.29-1.06,2.03-1.02-.47-1.57-1.51-2.54-1.95-.47.74-.38,1.32.43,2.81-.36.72-.97,1.2-1.64,1.64-.29.19-.69.48-.71.74-.02.42.46.49.83.53.35.05.47.28.49.59.05.62.12,1.24.15,1.86.06,1.16.43,2.22,1.01,3.2.82,1.38,1.87,2.63,2.48,4.15.23.58.66.55.97-.03.13-.25.25-.53.26-.8.01-.48.28-.71.71-.9.17.23.36.47.54.72.72,1.04,1.68,1.76,2.88,2.13.52.16,1.08.3,1.64-.21-.27-.23-.49-.43-.72-.62-1.85-1.53-2.8-3.45-2.61-5.88.1-1.24.81-1.99,1.87-2.03.49-.02.9.13,1.15.57.8,1.37,1.63,2.72,2.37,4.12.71,1.34.44,2.64-.42,3.83-1.1,1.55-2.54,2.74-4.16,3.71-2.37,1.43-4.92,2.28-7.73,2.22-.88-.02-1.76-.03-2.64-.04-.27,0-.54,0-.85,0,.09.71.56,1,1,1.18.94.37,1.92.65,2.9.91.54.14,1.11.15,1.7.22,0,.73-.35,1.25-.86,1.69-.71.61-1.56.93-2.46,1.09-3.53.63-6.75-.12-9.61-2.28-.57-.43-.96-1.1-1.43-1.65.04-.03.08-.07.11-.1Z"/>
    </g>
  </g>
</svg>